<?xml version="1.0" standalone="no"?><!DOCTYPE svg PUBLIC "-//W3C//DTD SVG 1.1//EN" "http://www.w3.org/Graphics/SVG/1.1/DTD/svg11.dtd"><svg t="1573212800778" class="icon" viewBox="0 0 1024 1024" version="1.1" xmlns="http://www.w3.org/2000/svg" p-id="4544" xmlns:xlink="http://www.w3.org/1999/xlink" width="200" height="200"><defs><style type="text/css"></style></defs><path d="M128.6 681.3s43.2 166.8 396.9 166.8c303.7 0 377.8-93.5 409.7-141.1 25.9-38.7 25.6-141.1 25.6-141.1l-38.4-154-64-89.9-140.8-89.8-115.2-38.5H474.2L320.6 245 167 399l-51.3 128.4 12.9 153.9z" fill="#FFEDE3" p-id="4545"></path><path d="M115.8 578.5s106.1 89.9 409.7 89.9 397.6-75.3 435.3-102.5l-27.1-124.7L891 353l-80.7-84.9-208-74.4H474.2L320.6 245 205.5 347.5l-64 102.7-25.7 128.3z" fill="#FFDF5A" p-id="4546"></path><path d="M317 308.2s52.4-45.9 87.8-67c0 0 100.4 38.7 113 67.3 0 0-80.2 79.9-96.8 113.9 0-0.1-66-88-104-114.2zM768.3 336.6s9.9-11.6 45.2-32.7c0 0 58.9 75.5 71.5 104.1 0 0-21 14.3-44 45.5 0 0-25-72.7-72.7-116.9z" fill="#FFC44D" p-id="4547"></path><path d="M510.4 834.2c-213.4 0-431.6-32.3-431.6-271.7 0-221.6 193.6-401.9 431.6-401.9S942 340.9 942 562.5c0 238.8-207.4 271.7-431.6 271.7z m0-647.9c-223.8 0-405.9 168.8-405.9 376.2 0 174.8 117.6 246 405.9 246 243.6 0 405.9-41.8 405.9-246 0-207.5-182.1-376.2-405.9-376.2z" fill="#C6481C" p-id="4548"></path><path d="M416.4 229c-2.5 0-4.9-1.5-5.9-3.9-1.4-3.3 0.1-7 3.4-8.4 33.9-14.5 68.2-24.7 102-30.2 3.5-0.6 6.8 1.8 7.4 5.3 0.6 3.5-1.8 6.8-5.3 7.4-32.8 5.4-66.1 15.3-99.1 29.4-0.8 0.2-1.7 0.4-2.5 0.4zM297.1 306.6c-1.7 0-3.3-0.7-4.6-1.9-2.5-2.5-2.4-6.6 0.1-9.1 24.7-24 51.9-44 81-59.5l6-3.2c3.2-1.6 7-0.4 8.7 2.7 1.6 3.2 0.4 7-2.7 8.7l-5.9 3.1c-28 14.9-54.3 34.3-78.1 57.4-1.3 1.2-2.9 1.8-4.5 1.8zM207.4 433.1c-0.9 0-1.9-0.2-2.8-0.7-3.2-1.6-4.5-5.4-2.9-8.6 19.4-39.6 42.7-75 69.1-105.2 2.3-2.7 6.4-2.9 9.1-0.6s2.9 6.4 0.6 9.1c-25.7 29.3-48.3 63.7-67.2 102.3-1.2 2.4-3.5 3.7-5.9 3.7zM164.3 555.8c-0.4 0-0.8 0-1.2-0.1-3.5-0.6-5.8-4-5.2-7.5 0.3-1.7 7.9-41.8 30.4-95.3 1.4-3.3 5.1-4.8 8.4-3.4 3.3 1.4 4.8 5.1 3.4 8.4-22 52.2-29.5 92.2-29.6 92.6-0.4 3.1-3.2 5.3-6.2 5.3zM655.3 238.1c-2.5 0-4.9-1.5-5.9-3.9-1.4-3.3 0.2-7 3.4-8.4 17.9-7.6 36-14.1 53.8-19.4 3.4-1 7 0.9 8 4.3s-0.9 7-4.3 8c-17.3 5.2-35 11.5-52.5 18.9-0.8 0.3-1.7 0.5-2.5 0.5zM539.2 303.1c-2 0-4-0.9-5.2-2.7-2.1-2.9-1.4-6.9 1.5-9l4.8-3.4c26.5-18.3 53.7-34.3 80.7-47.8 3.2-1.6 7-0.3 8.6 2.9s0.3 7-2.9 8.6c-26.5 13.2-53.1 28.9-79.1 46.8l-4.6 3.3c-1.2 0.9-2.5 1.3-3.8 1.3zM417.7 436.4c-1.2 0-2.4-0.3-3.4-1-3-1.9-3.9-5.9-2-8.9 29.7-47 63.2-86.3 99.6-116.8 2.7-2.3 6.8-1.9 9 0.8 2.3 2.7 1.9 6.8-0.8 9-35.4 29.7-68 68-97 113.8-1.2 2.1-3.3 3.1-5.4 3.1zM335.2 620.5c-0.5 0-1.1-0.1-1.6-0.2-3.4-0.9-5.5-4.4-4.6-7.8 0.2-0.8 20.4-77.1 67.9-160.2 1.8-3.1 5.7-4.2 8.8-2.4 3.1 1.8 4.2 5.7 2.4 8.8-46.6 81.6-66.4 156.4-66.6 157.1-0.8 2.8-3.4 4.7-6.3 4.7zM760.3 324.1c-2.1 0-4.2-1-5.4-3-1.9-3-1-7 1.9-8.9 18.5-11.9 37.3-22.6 55.8-31.9 3.2-1.6 7-0.3 8.6 2.9 1.6 3.2 0.3 7-2.9 8.6-18.1 9-36.5 19.5-54.6 31.2-1 0.8-2.2 1.1-3.4 1.1zM635.5 441.1c-1.3 0-2.6-0.4-3.8-1.2-2.9-2.1-3.5-6.1-1.4-9 28.5-39 61.5-72.3 98.1-99.2 2.9-2.1 6.9-1.5 9 1.4s1.5 6.9-1.4 9c-35.5 26.1-67.6 58.5-95.3 96.4-1.2 1.6-3.2 2.6-5.2 2.6zM543.9 642.4c-0.4 0-0.8 0-1.2-0.1-3.5-0.7-5.8-4-5.1-7.5 0.7-3.6 17.1-88.1 75.2-178.4 1.9-3 5.9-3.8 8.9-1.9s3.8 5.9 1.9 8.9c-56.7 88.2-73.2 173-73.4 173.8-0.6 3-3.3 5.2-6.3 5.2zM842.2 469.1c-1.3 0-2.7-0.4-3.9-1.3-2.8-2.1-3.4-6.1-1.3-9 16.8-22.5 35.1-43.3 54.6-62.1 2.6-2.5 6.6-2.4 9.1 0.2s2.4 6.6-0.2 9.1c-18.9 18.3-36.8 38.6-53.2 60.5-1.2 1.7-3.2 2.6-5.1 2.6zM765.6 611.3c-0.6 0-1.3-0.1-1.9-0.3-3.4-1.1-5.3-4.6-4.2-8 0.7-2.2 17-54 58.4-116.9 2-3 6-3.8 8.9-1.8 3 1.9 3.8 5.9 1.8 8.9-40.3 61.3-56.7 113.1-56.8 113.7-0.9 2.6-3.4 4.4-6.2 4.4zM620.5 238.1c-0.9 0-1.9-0.2-2.8-0.6-26.9-13-54.3-23.1-81.3-30.3-3.4-0.9-5.5-4.4-4.6-7.9 0.9-3.4 4.4-5.5 7.9-4.6 27.8 7.4 55.9 17.8 83.6 31.1 3.2 1.5 4.5 5.4 3 8.6-1.1 2.3-3.4 3.7-5.8 3.7zM734 321.1c-1.7 0-3.5-0.7-4.7-2.1-24.6-26.5-52-48.7-81.5-65.8-3.1-1.8-4.1-5.7-2.3-8.8s5.7-4.1 8.8-2.3c30.6 17.8 59 40.7 84.4 68.2 2.4 2.6 2.3 6.7-0.3 9.1-1.3 1.1-2.9 1.7-4.4 1.7zM824.9 467.4c-2.5 0-4.9-1.5-5.9-4-17.8-43.5-40.1-82.8-66.2-116.5-2.2-2.8-1.7-6.8 1.2-9 2.8-2.2 6.9-1.6 9 1.2 26.8 34.7 49.7 74.9 67.9 119.5 1.3 3.3-0.2 7-3.5 8.4-0.8 0.3-1.7 0.4-2.5 0.4zM852.6 555.8c-3.2 0-6-2.4-6.4-5.7 0-0.2-2.4-20.7-13.7-53.5-1.2-3.4 0.6-7 4-8.2 3.4-1.1 7 0.6 8.2 4 11.8 34.4 14.2 55.4 14.3 56.3 0.4 3.5-2.1 6.7-5.7 7.1h-0.7zM379.9 230.9c-0.8 0-1.6-0.1-2.3-0.4-16.7-6.5-33.4-12.2-49.8-17-3.4-1-5.4-4.6-4.3-8 1-3.4 4.6-5.4 8-4.3 16.7 4.9 33.9 10.8 50.9 17.4 3.3 1.3 5 5 3.7 8.3-1.2 2.4-3.7 4-6.2 4zM514.1 303.9c-1.4 0-2.8-0.5-4-1.4-16.9-13.7-34.9-25.7-53.6-35.6-15.1-8.1-30.5-15.6-45.6-22.4-3.2-1.5-4.7-5.3-3.2-8.5s5.3-4.7 8.5-3.2c15.4 6.9 31 14.6 46.4 22.8 19.4 10.3 38.1 22.8 55.6 37 2.8 2.2 3.2 6.3 0.9 9-1.2 1.5-3.1 2.3-5 2.3zM620.5 436.4c-2.3 0-4.5-1.2-5.7-3.4-22.8-42.8-50.1-79.7-81.3-109.8-2.6-2.5-2.6-6.5-0.2-9.1s6.5-2.6 9.1-0.2c32.1 31 60.3 69 83.7 113 1.7 3.1 0.5 7-2.6 8.7-1 0.6-2 0.8-3 0.8zM671.8 575.3c-3 0-5.7-2.2-6.3-5.3-0.1-0.5-8.7-46-34.1-103-1.4-3.2 0-7 3.3-8.5 3.2-1.5 7 0 8.5 3.3 26.1 58.5 34.7 104 35 105.9 0.6 3.5-1.7 6.8-5.2 7.5-0.4 0-0.8 0.1-1.2 0.1zM270.9 307.4c-1.2 0-2.4-0.3-3.5-1-14.5-9.3-29.3-18.1-44-26.2-3.1-1.7-4.2-5.6-2.5-8.7s5.6-4.2 8.7-2.5c14.9 8.3 30 17.2 44.7 26.6 3 1.9 3.9 5.9 2 8.9-1.2 1.8-3.3 2.9-5.4 2.9zM398.4 433.1c-2.1 0-4.1-1-5.3-2.8-26.6-39.5-58-73.4-93.3-101.1-2.8-2.2-3.3-6.2-1.1-9 2.2-2.8 6.2-3.3 9-1.1 36.4 28.4 68.7 63.4 96 104 2 2.9 1.2 6.9-1.7 8.9-1.1 0.7-2.4 1.1-3.6 1.1zM478.6 624.6c-3.1 0-5.8-2.2-6.3-5.4-0.1-0.7-12.4-73.9-58.2-154.9-1.7-3.1-0.7-7 2.4-8.8 3.1-1.7 7-0.7 8.8 2.4 47 83.2 59.2 156.1 59.7 159.2 0.6 3.5-1.8 6.8-5.3 7.4-0.4 0.1-0.8 0.1-1.1 0.1zM189.8 431.4c-1.9 0-3.9-0.9-5.1-2.5-12.9-17.1-29.9-37-44.4-51.9-2.5-2.5-2.4-6.6 0.1-9.1s6.6-2.4 9.1 0.1c14.8 15.3 32.3 35.6 45.5 53.1 2.1 2.8 1.6 6.9-1.2 9-1.3 0.9-2.6 1.3-4 1.3zM261.7 564c-2.7 0-5.2-1.7-6.1-4.4-0.1-0.4-15-44.5-48.1-97.2-1.9-3-1-7 2-8.9s7-1 8.9 2c33.9 54.1 48.7 98.1 49.4 100 1.1 3.4-0.7 7-4.1 8.1-0.6 0.2-1.3 0.4-2 0.4z" fill="#C6481C" p-id="4549"></path></svg>