<?xml version="1.0" standalone="no"?><!DOCTYPE svg PUBLIC "-//W3C//DTD SVG 1.1//EN" "http://www.w3.org/Graphics/SVG/1.1/DTD/svg11.dtd"><svg t="1573212797417" class="icon" viewBox="0 0 1024 1024" version="1.1" xmlns="http://www.w3.org/2000/svg" p-id="4414" xmlns:xlink="http://www.w3.org/1999/xlink" width="200" height="200"><defs><style type="text/css"></style></defs><path d="M120.2 376s1.1 148.7 45.6 236.9 146.7 174.4 168.5 190.6c0 0 50.2 63.5 200.1 63.5s202.5-67.6 202.5-67.6 144.9-113.9 181.3-221.8S950 376 950 376H120.2z" fill="#98C0E5" p-id="4415"></path><path d="M866.4 668.8C810.9 741.3 737 799.4 737 799.4S684.3 867 534.4 867c-149.9 0-200.1-63.5-200.1-63.5-17.3-12.8-85.3-69.8-134.9-136.9 91 32.7 208.5 52.4 336.7 52.4 125.2 0 240.2-18.8 330.3-50.2z" fill="#84B1D3" p-id="4416"></path><path d="M119.2 366.9a415.9 173.4 0 1 0 831.8 0 415.9 173.4 0 1 0-831.8 0Z" fill="#FFFDD7" p-id="4417"></path><path d="M952 366.9c0 21-8.9 41-25.2 59.7-28.2-46.9-103.4-85.9-203.6-107.8l-8.2-14.7-92.8-15.4-19.4 13.2-14.8 10.3-4.4-11.4-0.3-0.7-77.9-11.4-11.9 11.8-31.9 31.9-41.8-25.6-18.6-11.4-86.2 31.8-7.9 2.9-5.7 1-60.8 10.6 2.9 10.6c-46.7 20.5-81.1 45.9-98.1 74.3-16.3-18.6-25.2-38.7-25.2-59.7 0-95.8 186.2-173.4 415.9-173.4S952 271.1 952 366.9z" fill="#7399AD" p-id="4418"></path><path d="M280.6 312.5c4.4-1.3 9-2.6 13.5-3.9l-7.8 2.9-5.7 1zM398.1 288.3c23.5-2.9 48-5 73.1-6.1l-31.6 31.6-41.5-25.5zM560.6 282.4c6.5 0.3 12.9 0.7 19.2 1.1L565 293.7l-4.4-11.3z" fill="#FFFDD7" p-id="4419"></path><path d="M511.8 539c-240.3 0-428.5-83.8-428.5-190.8s188.2-190.8 428.5-190.8 428.5 83.8 428.5 190.8S752.1 539 511.8 539z m0-357.5c-219.3 0-404.5 76.4-404.5 166.8S292.6 515 511.8 515s404.5-76.4 404.5-166.8-185.2-166.7-404.5-166.7zM511.8 854.3c-96.5 0-180.7-27.4-209.6-68.1-3.8-5.4-2.6-12.9 2.8-16.7s12.9-2.6 16.7 2.8c24.2 34.1 102.4 58 190 58 99.9 0 171.7-29.9 191-59.4 3.6-5.5 11.1-7.1 16.6-3.5s7.1 11.1 3.5 16.6c-27.4 42.1-112.2 70.3-211 70.3z" fill="#C6481C" p-id="4420"></path><path d="M309.1 789.5c-2.5 0-5.1-0.8-7.2-2.4-37.3-28.3-106.7-80.9-155.3-161.2-58.4-96.4-63.2-190-63.2-277.6 0-6.6 5.4-12 12-12s12 5.4 12 12c0 84.2 4.6 174.1 59.8 265.2 46.2 76.4 113.3 127.2 149.3 154.5 5.3 4 6.3 11.5 2.3 16.8-2.5 3-6.1 4.7-9.7 4.7zM714.6 789.5c-3.6 0-7.2-1.6-9.6-4.8-4-5.3-3-12.8 2.3-16.8 36-27.3 103-78.1 149.3-154.5 55.1-91.1 59.8-181 59.8-265.2 0-6.6 5.4-12 12-12s12 5.4 12 12c0 87.6-4.9 181.2-63.2 277.6-48.6 80.4-118 132.9-155.3 161.2-2.3 1.7-4.8 2.5-7.3 2.5zM440.3 507.1c-2 0-4-1-5.1-2.9-1.7-2.8-0.8-6.5 2-8.2 6.7-7.7 18.7-91.9 14.2-103.2-9.6-9.4-149.6-54.8-166-49.8-12.3 3.7-67.2 60.3-98.9 95.1-2.2 2.5-6 2.6-8.5 0.4-2.4-2.2-2.6-6-0.4-8.5 14.1-15.5 85.2-92.9 104.4-98.6 19.5-5.7 172.6 41.7 180.1 55.8 5.8 10.8-4.1 110.2-18.7 118.9-1 0.7-2.1 1-3.1 1z" fill="#C6481C" p-id="4421"></path><path d="M580.4 507.1c-0.7 0-1.4-0.1-2.2-0.4-3.1-1.2-4.6-4.7-3.5-7.8 1.7-4.5 10.6-27.4 13.5-32 1.9-3 7.7-7.1 30.1-22 11.9-7.9 30.9-20.6 37.2-26.2-13.5-16.8-91.8-91.1-103-95.3-8-1.3-61.2 18.7-108.1 38.6-3 1.3-6.6-0.1-7.9-3.2-1.3-3 0.1-6.6 3.2-7.9 30.6-13 103.3-42.9 116.2-39.1 8.8 2.6 112.9 95.4 112.9 107.1 0 5.4-3.8 9-43.9 35.8-11.1 7.4-24.9 16.6-26.9 18.8-1.2 2-7.2 16.7-12.1 29.5-0.8 2.6-3.1 4.1-5.5 4.1zM229.6 357c-2.8 0-5.3-1.9-5.9-4.8-2.4-11.4-5.9-25.1-7.2-27.6-1.3-1.7-1.4-4.2-0.6-6.1 2-4.6 5.6-5.8 49.7-11 11.4-1.4 23.3-2.8 26.5-3.6 4.3-1.1 14.8-5.7 25.9-10.6 37.2-16.2 62.4-26.5 73-21.7 7.4 3.4 23.1 16 44.4 33.5 10.7 8.8 24 19.7 26.8 21 3.1 1 4.7 4.4 3.7 7.5s-4.5 4.8-7.7 3.8c-3.6-1.2-10.8-6.9-30.5-23-15.7-12.9-35.2-28.9-41.8-31.9-7.1-2.7-45 13.8-63.2 21.8-12.6 5.5-22.5 9.8-27.7 11.2-3.8 1-13.1 2.1-28 3.9-11.5 1.4-29.3 3.5-37.8 5.1 2.2 6.7 4.5 16.7 6.3 25.2 0.7 3.2-1.4 6.4-4.6 7.1-0.5 0.1-0.9 0.2-1.3 0.2zM809.5 451.5c-2.2 0-4.3-1.2-5.4-3.3-1.5-3-0.3-6.6 2.7-8.1 8-4 35.8-33 42.2-42.6-14.4-12.3-95.2-60.4-103.8-62.7-6.8-0.7-60.2 16.1-107.1 32.9-3.1 1.1-6.6-0.5-7.7-3.6-1.1-3.1 0.5-6.6 3.6-7.7 30.7-11 103.2-36.3 114.3-33.2 1.1 0.3 113.7 60.1 113.7 73.4 0 10.3-42.2 50.4-49.8 54.3-0.9 0.4-1.8 0.6-2.7 0.6z" fill="#C6481C" p-id="4422"></path><path d="M571.4 316.7c-1.5 0-3.1-0.6-4.3-1.6-3.1-2.8-4.6-8.2-6.7-16.8-0.7-2.7-1.6-6.5-2.4-8.6-5.4-0.9-18.2-3.4-47.9-9.5-11-2.3-22.3-4.6-26.4-5.4-4.4 3.3-16.7 18.4-26.3 31.5-1.9 2.7-5.7 3.3-8.4 1.3-2.7-2-3.3-5.7-1.3-8.4 27.7-37.8 33.1-37 36.2-36.5 2.1 0.3 11.7 2.3 28.6 5.7 18.2 3.7 45.7 9.4 48.8 9.7 6.3 0 8 6.9 10.6 17.2 0.9 3.7 2.5 9.8 3.5 11.2 2.4 2.2 2.5 5.9 0.3 8.3-1.1 1.3-2.7 1.9-4.3 1.9zM560.6 290h0z m-76.1-15.8zM709.9 323.5c-1.2 0-2.4-0.3-3.4-1.1-3.4-2.3-6.4-7.7-11.2-17-2.7-5.2-7.3-13.9-9.3-15.3-6.1-1.6-77.7-14.3-83.7-14.3-2.4 0.4-10.1 7.1-16 14.2-2.1 2.5-5.9 2.9-8.5 0.7-2.5-2.1-2.9-5.9-0.7-8.5 4.6-5.5 16.4-18.4 25.2-18.4 7.9 0 81.6 13.4 87.7 15.1 5.5 1.5 9.5 8.6 16 21 2.4 4.5 6 11.4 7.5 12.7 2.7 1.9 3.4 5.5 1.5 8.3-1.3 1.7-3.2 2.6-5.1 2.6z" fill="#C6481C" p-id="4423"></path></svg>