<?xml version="1.0" standalone="no"?><!DOCTYPE svg PUBLIC "-//W3C//DTD SVG 1.1//EN" "http://www.w3.org/Graphics/SVG/1.1/DTD/svg11.dtd"><svg t="1573212792429" class="icon" viewBox="0 0 1024 1024" version="1.1" xmlns="http://www.w3.org/2000/svg" p-id="4276" xmlns:xlink="http://www.w3.org/1999/xlink" width="200" height="200"><defs><style type="text/css"></style></defs><path d="M259.3 727.9V398.4l9.4-28.2-9.4-18.8s-8.3-52.9 84.7-65.9c21.1-26.1 51.5-42.9 84.7-47.1 0 0 52.1-11.2 94.1 9.4 0 0 147.2-29.7 178.9 28.2 0 0 112.1 21 94.1 94.1l9.4 37.7v320.1s-34.4 47.5-84.7 47.1c-53.8 40.4-123 54.3-188.3 37.7 0 0-117.5 37.3-178.9-37.7 0.1 0-47 10.4-94-47.1z" fill="#96F460" p-id="4277"></path><path d="M536.3 500.4s107 32.8 179.5-32.8c0 0 110.4-17.7 82.1-89.3 0 0 55.9-61.1-87.2-98.7 0 0-38.5-58-176.8-34.8 0 0-135.6-30.3-185.6 37.1 0 0-123 17.4-79.2 85.1 0 0-58.6 73.7 79.6 97.7 0 0 74.3 71.4 187.6 35.7z" fill="#DAFF99" p-id="4278"></path><path d="M529.7 289.9c32 0 61.8 40.4 56.5 56.5s-38.4 28.2-65.9 28.2c-27.5 0-59.4-8.9-65.9-28.2-6.5-19.3 28-56.5 75.3-56.5z" fill="#FF5A7E" p-id="4279"></path><path d="M513 365.3c-41 0-71.8-13.8-71.8-32 0-17.6 18.1-56.3 71.8-56.3 58.6 0 71.8 41.7 71.8 56.3 0 18.2-30.9 32-71.8 32z m0-78.8c-46.6 0-62.3 32.1-62.3 46.7 0 10.6 26.6 22.5 62.3 22.5s62.3-11.9 62.3-22.5c0-12.1-11.5-46.7-62.3-46.7zM238.9 698.8c-5.3 0-9.5-4.3-9.5-9.5V382.9c0-5.3 4.3-9.5 9.5-9.5s9.5 4.3 9.5 9.5v306.3c0 5.3-4.3 9.6-9.5 9.6zM787.1 698.8c-5.3 0-9.5-4.3-9.5-9.5V382.9c0-5.3 4.3-9.5 9.5-9.5s9.5 4.3 9.5 9.5v306.3c0 5.3-4.3 9.6-9.5 9.6zM458 813.9c-15.5 0-32.7-1.4-50.7-5-53-10.6-80.4-33.8-87.5-44.6-2.9-4.4-1.7-10.3 2.8-13.2 4.4-2.9 10.3-1.6 13.2 2.8 4.2 6.4 26.9 26.7 75.2 36.3 49.7 9.9 88.9 1.4 98.8-2.4 4.9-1.9 10.4 0.6 12.3 5.5 1.9 4.9-0.6 10.4-5.5 12.3-10.9 4.2-32.2 8.3-58.6 8.3z" fill="#C6481C" p-id="4280"></path><path d="M327.8 768.6h-0.6c-22.1-1.3-62.7-12.4-84.3-37.4-12-14-16.2-30.6-11.9-46.8 1.4-5.1 6.6-8.1 11.7-6.7 5.1 1.4 8.1 6.6 6.7 11.7-2.7 10.2-0.1 20.1 7.9 29.4 17.5 20.4 52.8 29.7 71 30.8 5.3 0.3 9.3 4.8 8.9 10.1-0.2 5-4.4 8.9-9.4 8.9zM568.3 813.9c-26.4 0-47.7-4.1-58.6-8.2-4.9-1.9-7.4-7.4-5.5-12.3 1.9-4.9 7.4-7.4 12.3-5.5 9.8 3.8 49 12.3 98.8 2.4 48.3-9.6 71.1-30 75.2-36.3 2.9-4.4 8.8-5.6 13.2-2.8 4.4 2.9 5.6 8.8 2.8 13.2-7.1 10.8-34.5 34-87.5 44.6-17.9 3.5-35.2 4.9-50.7 4.9z" fill="#C6481C" p-id="4281"></path><path d="M698.5 768.6c-5 0-9.2-3.9-9.5-9-0.3-5.3 3.7-9.8 8.9-10.1 18.1-1.1 53.4-10.4 71-30.8 8-9.3 10.7-19.2 7.9-29.4-1.4-5.1 1.6-10.3 6.7-11.7 5.1-1.4 10.3 1.6 11.7 6.7 4.4 16.2 0.1 32.9-11.9 46.8-21.5 25-62.2 36.1-84.3 37.4-0.1 0.1-0.3 0.1-0.5 0.1zM239.7 412.8c-4.4 0-8.3-3.1-9.3-7.5-5.4-25.2 5.5-46.4 12.8-55 3.4-4 9.4-4.5 13.4-1 4 3.4 4.5 9.4 1 13.4-4.7 5.5-12.5 20.6-8.7 38.6 1.1 5.1-2.2 10.2-7.3 11.3-0.5 0.1-1.2 0.2-1.9 0.2zM458.6 497.6c-15.1 0-31.9-1.4-49.5-4.9-47.3-9.5-76-30.7-83.7-42.6-1.4-2.2-0.8-5.2 1.4-6.6 2.2-1.4 5.2-0.8 6.6 1.4 4.4 6.8 28.2 28.5 77.6 38.4 45 9.1 85.5 3.2 100.5-2.6 2.5-0.9 5.2 0.3 6.2 2.7 0.9 2.5-0.3 5.2-2.7 6.2-10.6 4.1-31 8-56.4 8z" fill="#C6481C" p-id="4282"></path><path d="M329.4 452.3h-0.3c-14.6-0.9-57.5-9.1-80.3-35.8-5.4-6.3-9.1-13.1-10.9-20.2-0.7-2.5 0.9-5.2 3.4-5.8 2.5-0.7 5.2 0.9 5.8 3.4 1.5 5.7 4.5 11.2 8.9 16.4 18.3 21.5 54.9 31.3 73.6 32.5 2.6 0.2 4.6 2.4 4.5 5-0.1 2.5-2.2 4.5-4.7 4.5zM567.7 497.6c-25.4 0-45.8-3.9-56.3-8-2.5-0.9-3.7-3.7-2.7-6.2s3.7-3.7 6.2-2.7c15 5.8 55.5 11.7 100.5 2.6 49.4-9.9 73.2-31.6 77.6-38.4 1.4-2.2 4.4-2.8 6.6-1.4 2.2 1.4 2.8 4.4 1.4 6.6-7.7 11.9-36.4 33.1-83.7 42.6-17.7 3.6-34.5 4.9-49.6 4.9z" fill="#C6481C" p-id="4283"></path><path d="M696.9 452.3c-2.5 0-4.6-1.9-4.8-4.5s1.8-4.9 4.5-5c18.7-1.1 55.3-11 73.6-32.5 2.8-3.3 5.1-6.8 6.7-10.3 1.1-2.4 3.9-3.4 6.3-2.3s3.4 3.9 2.3 6.3c-2 4.3-4.7 8.5-8.1 12.5-22.8 26.8-65.7 34.9-80.3 35.8h-0.2z" fill="#C6481C" p-id="4284"></path><path d="M784 415c-1.3 0-2.5-0.3-3.8-0.8-4.8-2.1-7.1-7.7-5-12.5 7.8-18.1-1.9-34-6.3-38.6-3.7-3.8-3.5-9.8 0.3-13.5s9.8-3.5 13.5 0.3c8.5 8.9 21.7 32.7 10.1 59.4-1.6 3.6-5.1 5.7-8.8 5.7zM329.4 274.8c-0.8 0-1.6-0.1-2.4-0.3-5.1-1.3-8.1-6.3-6.9-11.4 2.8-11.4 22.1-33.8 76.2-45.2 52.8-11 103.9-3.4 119.2 0.5 5.1 1.3 8.2 6.5 6.9 11.6s-6.4 8.2-11.6 6.9c-14-3.6-61.3-10.6-110.5-0.3-46.3 9.7-60.6 27.3-61.6 31.1-1.2 4.3-5.1 7.1-9.3 7.1z" fill="#C6481C" p-id="4285"></path><path d="M253.2 366c-1.7 0-3.5-0.5-5.1-1.5-7.9-5-17.1-15.3-19.3-29.1-1.4-8.5-0.5-21.6 11.4-36.1 21.9-26.7 66.9-40 87.7-43.3 5.2-0.8 10.1 2.7 10.9 7.9s-2.7 10.1-7.9 10.9c-20.4 3.2-59.1 16.1-75.9 36.6-5.9 7.2-8.4 14.3-7.3 21 1.1 7.1 6.2 13.1 10.7 16 4.4 2.8 5.8 8.7 2.9 13.2-1.8 2.8-4.9 4.4-8.1 4.4zM696.9 274.9c-4.3 0-8.2-2.9-9.2-7.2-1.1-3.8-15.3-21.4-61.6-31.1-49.2-10.3-96.5-3.3-110.5 0.3-5.1 1.3-10.3-1.8-11.6-6.9-1.3-5.1 1.8-10.3 6.9-11.6 15.3-3.9 66.4-11.5 119.2-0.5 54.1 11.3 73.4 33.7 76.2 45.2 1.3 5.1-1.8 10.3-7 11.5-0.9 0.3-1.6 0.3-2.4 0.3z" fill="#C6481C" p-id="4286"></path><path d="M773 366c-3.2 0-6.2-1.6-8.1-4.4-2.8-4.4-1.5-10.3 2.9-13.2 4.5-2.9 9.6-8.9 10.7-16 1.1-6.7-1.4-13.8-7.3-21-16.8-20.5-55.5-33.3-75.9-36.6-5.2-0.8-8.7-5.7-7.9-10.9 0.8-5.2 5.8-8.7 10.9-7.9 20.7 3.3 65.8 16.6 87.7 43.3 11.9 14.5 12.7 27.6 11.4 36.1-2.2 13.8-11.4 24-19.3 29.1-1.5 1-3.3 1.5-5.1 1.5zM325.3 718.4c-2.6 0-4.8-2.1-4.8-4.8V497.8c0-2.6 2.1-4.8 4.8-4.8s4.8 2.1 4.8 4.8v215.8c0 2.6-2.2 4.8-4.8 4.8zM513 757.3c-2.6 0-4.8-2.1-4.8-4.8V522.7c0-2.6 2.1-4.8 4.8-4.8 2.6 0 4.8 2.1 4.8 4.8v229.9c-0.1 2.6-2.2 4.7-4.8 4.7zM702.9 725.8c-2.6 0-4.8-2.1-4.8-4.8V497.8c0-2.6 2.1-4.8 4.8-4.8s4.8 2.1 4.8 4.8V721c-0.1 2.7-2.2 4.8-4.8 4.8zM515.5 488.9c-1.8 0-3.6-1.1-4.4-2.9-1-2.4 0.1-5.2 2.5-6.3 0.5-0.2 48.5-21.2 53.1-54.8 4.5-33.5-17.3-52.2-18.2-52.9-2-1.7-2.3-4.7-0.6-6.7s4.7-2.3 6.7-0.6c1.1 0.9 26.9 22.7 21.6 61.6-5.3 38.9-56.6 61.3-58.8 62.3-0.6 0.2-1.2 0.3-1.9 0.3zM337.9 451.7c-4.7 0-7.5-0.1-8-0.2-2.6-0.1-4.6-2.4-4.5-5s2.5-4.6 5-4.5c0.5 0 52.9 2.6 94.6-16.6 43.8-20.1 33.4-56.4 32.9-58-0.8-2.5 0.7-5.2 3.2-5.9 2.5-0.8 5.2 0.6 5.9 3.1 0.1 0.5 13.5 45.8-38 69.4-34.4 15.9-74.3 17.7-91.1 17.7z" fill="#C6481C" p-id="4287"></path><path d="M698.9 450.9c-0.6 0-1.1-0.1-1.7-0.3-2.5-0.9-3.7-3.7-2.8-6.1 0.1-0.3 11.9-32.5-5.7-70-19.6-42.1-92.9-36.2-93.6-36.2-2.5 0.3-4.9-1.7-5.2-4.3-0.2-2.6 1.7-4.9 4.3-5.2 3.3-0.3 80.6-6.5 103.1 41.6 19.3 41.4 6.5 76 5.9 77.5-0.6 1.9-2.4 3-4.3 3z" fill="#C6481C" p-id="4288"></path><path d="M342.3 380.1c-48.7 0-88.3-22.6-90.1-23.6-2.3-1.3-3.1-4.2-1.7-6.5 1.3-2.3 4.2-3.1 6.5-1.7 0.4 0.3 44.8 25.5 95.2 22 42.9-3 67.3-23.9 73.2-37.3 1.1-2.4 3.9-3.5 6.3-2.4s3.5 3.9 2.4 6.3c-5.9 13.3-30.5 39.4-81.3 42.9-3.5 0.2-7.1 0.3-10.5 0.3z" fill="#C6481C" p-id="4289"></path><path d="M769.4 364c-1.6 0-3.2-0.8-4.1-2.3-0.2-0.4-24.7-38.5-88.8-52-64.7-13.6-92 1.4-92.3 1.5-2.3 1.3-5.2 0.5-6.5-1.8s-0.5-5.2 1.8-6.5c1.2-0.7 30.8-16.9 99-2.6 68.4 14.4 93.9 54.6 95 56.3 1.4 2.2 0.7 5.2-1.5 6.5-0.8 0.7-1.7 0.9-2.6 0.9z" fill="#C6481C" p-id="4290"></path><path d="M552 292.7c-0.5 0-1-0.1-1.5-0.2-2.5-0.8-3.9-3.4-3.1-5.9 0.3-1.1 9-27.2 53.4-32.9 51-6.5 94.4 10.7 96.2 11.4 2.4 1 3.6 3.8 2.6 6.2-1 2.4-3.8 3.6-6.2 2.6-0.4-0.2-43-17-91.4-10.8-37.9 4.9-45.3 25.5-45.5 26.4-0.6 1.9-2.5 3.2-4.5 3.2z" fill="#C6481C" p-id="4291"></path><path d="M485.6 289.3c-1.6 0-3.8-0.7-5.7-2.6-3.5-3.7-4.5-10.6-3-21.2 2.9-21 34.7-36.1 38.4-37.7 2.4-1.1 5.2 0 6.3 2.4s0 5.2-2.3 6.3c-8.5 3.9-31 17-32.9 30.4-1.3 9-0.1 12.2 0.3 13 2 0.4 3.6 2.1 3.8 4.2 0.2 2.6-1.7 4.9-4.3 5.2h-0.6z m1.3-9.2z m-1.6-0.3z" fill="#C6481C" p-id="4292"></path><path d="M405.7 312.7c-8.9 0-19.3-0.3-31.4-1.2-24.5-1.7-40-8.5-46-20-6.7-12.8 1.1-26 1.4-26.6 1.4-2.3 4.3-3 6.5-1.6 2.3 1.3 3 4.3 1.7 6.5-0.1 0.2-5.3 9.3-1.1 17.3 4.4 8.3 17.6 13.4 38.2 14.9 57.1 4 75.8-3.7 76-3.8 2.4-1 5.2 0.1 6.3 2.5 1.1 2.4 0 5.2-2.4 6.3-0.7 0.2-13.3 5.7-49.2 5.7z" fill="#C6481C" p-id="4293"></path></svg>