<?xml version="1.0" standalone="no"?><!DOCTYPE svg PUBLIC "-//W3C//DTD SVG 1.1//EN" "http://www.w3.org/Graphics/SVG/1.1/DTD/svg11.dtd"><svg t="1573212788571" class="icon" viewBox="0 0 1024 1024" version="1.1" xmlns="http://www.w3.org/2000/svg" p-id="4144" xmlns:xlink="http://www.w3.org/1999/xlink" width="200" height="200"><defs><style type="text/css"></style></defs><path d="M598.9 766.1c-76.1 12.4-315.4-4.6-364.8-47.1-49.4-42.5-53.4-119.7-105.9-141.2 0 0-0.1-88.8-35.3-94.1 0 0 60.3-30.6 23.5-70.6 0 0 73.7-31.9 58.8-70.6 0 0 56.7-10.7 70.6-58.8 0 0 83.9 0.4 105.9-47.1 0 0 83.2 18.1 141.2-23.5h153l211.8 23.5 11.8 35.3 58.8 23.5v35.3l35.3 23.5s-37.8 57.5-47.1 105.9c-9.3 48.4-20.4 109.8-47.1 153-26.5 43.2-144.7 132.5-270.5 153z" fill="#F78E81" p-id="4145"></path><path d="M151.8 577.8l23.5-94.1L245.9 366l129.4-94.1 129.4-35.3L646 213l141.2 47.1 94.1 58.8 47.1 70.6-11.8 35.3-23.5 11.8-11.8 58.8-47.1 11.8-23.5 47.1-70.6 11.7-47.1 35.3h-82.4l-47.1 23.5H493l-70.6 23.5-47.1-23.5h-47.1L293 636.6l-23.5-35.3-94.1 11.8-23.6-35.3z" fill="#FFFB5F" p-id="4146"></path><path d="M928.4 389.5l-11.8 35.3-23.5 11.8-11.8 58.8-47.1 11.8-23.5 47.1-70.6 11.7-47.1 35.3h-82.4l-47.1 23.5H493l-70.6 23.5-47.1-23.5h-47.1L293 636.6l-23.5-35.3-94.1 11.8-23.5-35.3 5.8-23.4c63.4 14.9 286.4 59.2 475-4.4 153.5-51.8 239.9-137.9 278.6-186.2l17.1 25.7z" fill="#EADE49" p-id="4147"></path><path d="M495.3 781.2c-126.3 0-253.7-33.5-293.8-69.1-10.1-8.9-15.4-18.3-15.9-28-1.5-28.6-63.8-87.6-102.7-118-5.2-4-6.1-11.5-2-16.6 4-5.2 11.5-6.1 16.6-2 11.2 8.7 109.3 86.9 111.8 135.5 0.1 1.4 1 5.3 8 11.5 40.8 36.1 190.6 70.9 322.8 61.6C699.4 745 798.6 641.1 836 602c16.1-16.9 29.4-66.5 42.2-114.6 15.8-59 32.1-120.1 58.8-147.6 4.6-4.7 12.1-4.8 16.8-0.3 4.7 4.6 4.8 12.1 0.3 16.8-22.4 23.1-38.7 83.7-53 137.2-14.9 55.6-27.7 103.6-48 124.9-39.1 40.9-143 149.6-311.4 161.4-15.4 0.9-30.9 1.4-46.4 1.4z" fill="#C6481C" p-id="4148"></path><path d="M399.1 643.2c-3.2 0-6.5-1.4-8.8-3.9-22.1-24.7-55.7-27.4-112.2-9-3.2 1-6.6 0.7-9.5-1-2.8-1.6-4.8-4.3-5.5-7.3-4.8-21-35.4-19.5-98.1-8.8-4.2 0.7-8.2-0.8-10.9-4-2.7-3.3-3.5-7.8-2-11.8 2.9-7.9 2.9-13.9 0-18.2-6.1-8.8-25.4-13.6-57.6-14.1-4.7-0.1-8.8-2.8-10.6-7.1-1.8-4.4-0.9-9.2 2.3-12.7 9.1-9.6 19.2-23.5 15.9-35.6-3.1-11.6-18.2-18.2-30.2-21.7-4.6-1.3-7.9-5.2-8.5-9.9-0.5-4.7 1.8-9.2 5.9-11.5 26.1-14.8 39.4-26.6 39.5-35 0.1-4.5-4.1-9.4-12.4-14.3-3.9-2.4-6.1-6.7-5.5-11.3 0.5-4.6 3.6-8.4 8-9.8 30.7-10.2 47.8-20.6 51-30.8 1.5-5-0.3-10.8-5.5-17.5-2.6-3.4-3.3-7.7-1.7-11.7 1.5-3.9 4.9-6.5 9-7.2 31.6-4.9 49.7-11.9 56.8-22 4.2-5.9 5.1-13.4 3.1-24.3-0.6-3.4 0.3-6.8 2.5-9.5 2.3-2.7 5.5-4.1 9.2-4.2 59.7 0.6 90.2-12.1 103.9-42.2 2.3-5 7.6-7.7 12.9-6.7 55.2 10.6 92.2 2 127.7-29.9 3.4-3.1 8.4-3.8 12.6-1.9 43.4 19.7 81.3 16.9 130.8-9.8 4.8-2.6 10.6-1.5 14.3 2.5 22.1 24.7 55.6 27.4 112 9.1 3.3-1.1 6.9-0.6 9.8 1.1 2.8 1.7 4.8 4.5 5.3 7.7 3 17.4 15.6 33.6 86.2 22.8 4.2-0.6 8.2 0.9 10.8 4.1 2.7 3.3 3.4 7.7 1.9 11.7-3 8-3 13.9 0 18.3 6 8.8 25.4 13.6 57.5 14.1 4.7 0.1 8.8 2.8 10.6 7.1 1.8 4.4 0.9 9.2-2.3 12.7-9.2 9.7-13 17.5-11.4 23.1 1.5 5.2 9.1 12.8 36.7 19.4 4.8 1.2 8.3 5.1 8.9 10 0.6 4.9-1.8 9.5-6.1 11.8-18.8 10-44.6 23.6-44.8 31.3-0.1 2.4 3.4 5.8 9.4 9.4 3.9 2.3 6.1 6.6 5.7 11.1-0.4 4.6-3.4 8.4-7.8 9.9-21.9 7.8-34.2 16.4-36.5 25.5-1.8 6.9 2 15.5 11.6 26.3 2.9 3.2 3.8 7.8 2.3 11.8-1.4 4-4.8 6.9-9 7.5-68.4 10.9-74.2 33-71.6 51.1 0.5 3.3-0.5 6.6-2.7 9.1-2.3 2.6-5.5 4.1-8.9 4.1-1.2-0.1-2.5 0-3.7 0-56.9 0-87.1 12.7-100.5 42.3-2.3 5-7.5 7.7-12.9 6.7-55.2-10.6-92.3-2-127.8 29.8-3.4 3.1-8.3 3.8-12.6 1.9-43.4-19.7-81.3-16.9-130.8 9.8-2 1.1-3.9 1.6-5.7 1.6z m-58.9-36.8c25.2 0 44 8.2 58.9 24.9 52.3-28.3 94.6-31.3 141.2-10.1 37.8-34.1 79.1-43.9 137.6-32.6 15.8-35 50.2-49.8 114.8-49.2-6.5-44.7 43.4-58 81.4-64-12.6-13.7-17.3-25.9-14.5-36.9 3.5-13.6 17.5-24.3 44-33.8-3.8-2-15.5-8.9-15.2-19.6 0.3-14 19.7-24.9 51.2-41.5l2.8 5.2-2.8-5.2 2.8 5.2-2.7-5.3c-27.3-6.3-41.7-15-45.3-27.3-3-10.1 1.6-21.4 14.1-34.6-37.6-0.4-58.3-6.4-67-19.1-5.2-7.6-5.7-17.4-1.3-29.1-42.4 6.6-92.2 8.8-99.5-32.4-61.3 20.3-98.6 16.6-124.3-12.1-52.3 28.3-94.6 31.3-141.2 10.2-37.8 34.1-79.1 43.9-137.6 32.6-15.8 35-49.9 49.7-114.6 49.2 2.7 13.9 1.1 24.5-5 33-9.2 13-29.2 21.3-64.7 26.8 7.9 9.7 10.5 19.2 7.8 28.1-4.5 14.8-22.5 26.7-58.6 38.7 12.3 7.1 18.2 15.1 18.1 24.3-0.2 13.7-13.8 27.2-45.5 45.2 21.8 6 34.8 16 38.5 29.6 3.8 13.8-2.7 30-18.7 46.9 37.6 0.4 58.3 6.4 67 19.1 5.2 7.6 5.7 17.4 1.4 29 60.4-10.5 103.9-15.3 111.4 17.8 25.8-8.7 47.3-13 65.5-13z" fill="#C6481C" p-id="4149"></path><path d="M137.9 576h-0.3c-6.5-0.2-11.7-5.6-11.6-12.1 0.1-2.8 10.6-282.9 341.6-355.6s448.8 153.4 450 155.7c2.9 5.8 0.6 13-5.3 15.9-5.8 2.9-13 0.6-15.9-5.2C892 366 785 162.9 472.7 231.5c-313.1 68.8-322.9 330.4-323 333-0.1 6.4-5.4 11.5-11.8 11.5z" fill="#C6481C" p-id="4150"></path><path d="M366.5 570.1c-3 0-5.5-2.2-5.9-5.2-18.2-147.5-148.9-173.2-154.4-174.2-3.2-0.6-5.4-3.7-4.8-6.9 0.6-3.2 3.7-5.4 6.9-4.8 1.4 0.3 144.8 28.1 164.1 184.4 0.4 3.2-1.9 6.2-5.2 6.6-0.3 0.1-0.5 0.1-0.7 0.1z" fill="#C6481C" p-id="4151"></path><path d="M421.1 570.1c-3 0-5.5-2.2-5.9-5.2C393.4 387.7 231.7 356.3 230 356c-3.2-0.6-5.4-3.7-4.8-6.9 0.6-3.2 3.7-5.4 6.9-4.8 1.7 0.3 172 33.3 194.9 219.1 0.4 3.2-1.9 6.2-5.2 6.6-0.2 0.1-0.4 0.1-0.7 0.1z" fill="#C6481C" p-id="4152"></path><path d="M504.3 570.1c-3 0-5.5-2.2-5.9-5.2C472 350.6 276.1 312.3 274.1 312c-3.2-0.6-5.4-3.7-4.8-6.9 0.6-3.2 3.7-5.4 6.9-4.8 2.1 0.4 206.5 40 234 263.2 0.4 3.3-1.9 6.2-5.2 6.6h-0.7z" fill="#C6481C" p-id="4153"></path><path d="M551.7 565c-3 0-5.5-2.2-5.9-5.2-27.2-221-229.2-260.4-231.3-260.8-3.2-0.6-5.4-3.7-4.8-6.9 0.6-3.2 3.7-5.4 6.9-4.8 2.1 0.4 212.6 41.2 240.9 271 0.4 3.2-1.9 6.2-5.2 6.6-0.1 0.1-0.3 0.1-0.6 0.1zM690.2 531.1c-3 0-5.5-2.2-5.9-5.2-29.7-240.7-249.5-283.3-251.7-283.7-3.2-0.6-5.4-3.7-4.8-6.9s3.7-5.3 6.9-4.8c2.3 0.4 230.6 44.7 261.3 293.9 0.4 3.2-1.9 6.2-5.2 6.6-0.2 0.1-0.4 0.1-0.6 0.1z" fill="#C6481C" p-id="4154"></path><path d="M738.8 519.6c-3 0-5.5-2.2-5.9-5.2C703.3 274 483.5 231.1 481.3 230.7c-3.2-0.6-5.4-3.7-4.8-6.9s3.7-5.3 6.9-4.8c2.3 0.4 230.6 44.7 261.3 293.9 0.4 3.2-1.9 6.2-5.2 6.6-0.2 0.1-0.4 0.1-0.7 0.1zM844.2 436.9c-3 0-5.5-2.2-5.9-5.2C816 251.1 651.1 219.1 649.5 218.8c-3.2-0.6-5.4-3.7-4.8-6.9 0.6-3.2 3.7-5.4 6.9-4.8 1.7 0.3 175.1 34 198.5 223.2 0.4 3.2-1.9 6.2-5.2 6.6h-0.7zM288.1 674.8c-3 0-5.6-2.3-5.9-5.3-2-20.1-15.6-39.9-15.8-40-1.9-2.7-1.2-6.4 1.5-8.3 2.7-1.9 6.4-1.2 8.3 1.5 0.6 0.9 15.5 22.5 17.8 45.7 0.3 3.3-2 6.2-5.3 6.5-0.2-0.1-0.4-0.1-0.6-0.1zM412.9 692.4c-3.1 0-5.7-2.4-5.9-5.5-2.2-29.1-14.1-43.7-14.2-43.9-2.1-2.5-1.7-6.2 0.8-8.3s6.2-1.8 8.3 0.7c0.6 0.7 14.4 17.4 17 50.6 0.2 3.3-2.2 6.1-5.5 6.4h-0.5zM543.7 677.7c-3.3 0-5.9-2.7-5.9-5.9 0-16.6-2.4-42.8-2.4-43-0.3-3.3 2.1-6.1 5.4-6.5 3.2-0.3 6.1 2.1 6.5 5.4 0.1 1.1 2.5 27 2.5 44.1-0.2 3.2-2.8 5.9-6.1 5.9zM677.6 647c-3.3 0-5.9-2.7-5.9-5.9 0-18.7 3.7-45.5 3.8-46.6 0.4-3.2 3.4-5.6 6.7-5.1 3.2 0.4 5.5 3.4 5.1 6.7 0 0.3-3.7 27.1-3.7 45 0 3.2-2.7 5.9-6 5.9zM781.1 604.2h-0.3c-3.3-0.2-5.8-2.9-5.6-6.2 1.5-32.1 18.3-55.9 19-56.8 1.9-2.7 5.6-3.3 8.3-1.4 2.7 1.9 3.3 5.6 1.4 8.3-0.2 0.2-15.4 22.1-16.8 50.5-0.3 3.1-2.9 5.6-6 5.6z" fill="#C6481C" p-id="4155"></path></svg>