<?xml version="1.0" standalone="no"?><!DOCTYPE svg PUBLIC "-//W3C//DTD SVG 1.1//EN" "http://www.w3.org/Graphics/SVG/1.1/DTD/svg11.dtd"><svg t="1573212784153" class="icon" viewBox="0 0 1024 1024" version="1.1" xmlns="http://www.w3.org/2000/svg" p-id="4013" xmlns:xlink="http://www.w3.org/1999/xlink" width="200" height="200"><defs><style type="text/css"></style></defs><path d="M101 565.7L240.5 716l118.1 21.5L466 823.3h53.7l161-150.3 10.7 53.7-53.7 53.7 54.7 32.9 245.9-247.6L949 426.2l-42.9-53.7h-64.4L723.6 265.1l-150.3-64.4s-64.4-13.2-85.9-10.7c-40.6 4.6-116 42.1-150.3 64.4-43 28-120.7 97.7-150.3 139.5-27.6 39.3-85.8 171.8-85.8 171.8z" fill="#80EA50" p-id="4014"></path><path d="M208.3 404.7l365 214.7v-42.9l246.9-171.7-139.6-139.7L498.2 190S313.7 278.7 305 286.6c-8.7 8-96.7 118.1-96.7 118.1z" fill="#FFFEE3" p-id="4015"></path><path d="M457 233.7l53.7 53.7s141.7 14.6 139.5 10.7c-2.1-3.9-42.9-64.4-42.9-64.4H457z" fill="#FCBF27" p-id="4016"></path><path d="M435.5 351.7L414 341s-41.3-5.1-53.7 0c-7 2.9-19.6 18.7-21.5 21.5-6.3 9.4-7.9 21.2-10.7 32.2 0 0 22.9 24 32.2 21.5 11.6-3.1 12.8-34.6 21.5-42.9 9.9-9.5 39.4 1 49.6-6.2 3.3-2.4 4.1-15.4 4.1-15.4z" fill="#FF8571" p-id="4017"></path><path d="M489.2 341c-9.7 16.3-10.7 75.1-10.7 75.1l42.9 32.2h64.4l10.7-21.5s-43.7-45.5-42.9-42.9c0.8 2.6 0-64.4 0-64.4l-21.5-10.7S496 329.5 489.2 341z" fill="#F7EA52" p-id="4018"></path><path d="M949 426.2l-10.7 139.5S734 782.3 692.4 813.3c-7.8 5.8-31.5-14.4-31.5-14.4l-23.2-18.6 53.7-53.7-10.7-53.6-7.6 7.1-20-57.6 275.2-222.2 20.7 25.9z" fill="#B6F763" p-id="4019"></path><path d="M654.9 732.2l-10 51.8-23.2-18.6z" fill="#80EA50" p-id="4020"></path><path d="M472.5 824.5c-1.2 0-2.4 0-3.5-0.2-12.9-1.2-27.5-13.8-50.1-34.3-13.5-12.2-27.4-24.8-40.8-33.5-17.9-11.8-62.7-25.2-98.7-36-31.8-9.5-50.2-15.2-58-20.2-11.7-7.5-32.8-30.1-55-54-11.8-12.7-23-24.7-31-32.4-5.3-5.2-11.5-10.4-18-15.9-21.3-18.1-43.3-36.8-44.8-59.3-1.9-29.1 77-150.8 95.3-168.1 5.6-5.3 14.2-13.9 24.5-24.1 23.2-23.2 55-55 83.3-80 41.6-36.8 151.8-100.4 195.8-103.1 48.7-3 124.4 19.5 202.1 60.1 73.1 38.2 141.7 108.8 161.6 130.1 10.5-4.6 30-10.7 50.4-5 18.4 5.1 33.2 18.4 44 39.5 32.6 63.8 5.8 172.2-6.7 182.6-9.3 7.7-56.7 49-94.9 86.2-12.2 11.9-28.5 29.5-45.8 48.2-50.6 54.7-85.2 90.8-103.8 95.8-30.6 8.3-63.3-31.6-66.9-36.2-3.3-4.2-3.1-10.3 0.6-14.2l54.6-57.6c4.1-4.3 11-4.5 15.3-0.4s4.5 11 0.4 15.3l-47.8 50.5c10.5 11 27.3 24.6 38.2 21.7 14-3.7 61.9-55.4 93.5-89.6 17.5-18.8 34-36.7 46.6-49 40.4-39.4 86.9-79.5 95.4-86.7 6.7-11.4 29.6-102.9 2-156.8-7.9-15.4-18.1-25-30.4-28.5-20.5-5.8-41.3 6.6-41.5 6.7-4.5 2.7-10.3 1.9-13.7-2-0.8-0.9-79.7-88.9-161.1-131.5-87.5-45.8-156.1-59.8-190.7-57.7-36.1 2.2-141.3 61-182.7 97.7-27.7 24.6-59.3 56.1-82.3 79.1-10.4 10.4-19.1 19.1-24.9 24.5-20.7 19.6-89.6 133.3-88.6 151 0.9 13.4 20.2 29.8 37.2 44.2 6.5 5.5 13.2 11.2 19 16.8 8.4 8.1 19.8 20.3 31.8 33.2 18.5 19.8 41.5 44.5 50.9 50.6 5.6 3.6 30.5 11.1 52.5 17.6 39.3 11.8 83.9 25.1 104.4 38.6 14.7 9.7 29.9 23.4 43.4 35.6 13.2 11.9 31.2 28.2 37.7 28.8 14.2 1.3 51.9-13.3 59.1-20.3 7.4-7.2 82.3-87.2 120.8-128.5 4.1-4.4 10.9-4.6 15.3-0.5s4.6 10.9 0.5 15.3c-4.6 4.9-111.9 119.9-121.5 129.3-11.7 11.2-51.5 26.6-73 26.6z" fill="#C6481C" p-id="4021"></path><path d="M559.2 609.1c-1 0-2.1-0.3-3-0.9-30.6-20.4-352.3-210.3-355.5-212.2-2.6-1.5-3.4-4.8-1.9-7.4s4.9-3.4 7.4-1.9C218.7 394 496.5 558 554.2 594c0.8-9.5 3.3-23.5 10.5-31.6C575 551 756 414.2 799.9 389.2c-14.1-21.6-76.5-110.2-176.2-151.6-2.8-1.1-4.1-4.3-2.9-7.1 1.2-2.8 4.3-4.1 7.1-2.9 116.9 48.5 183.8 159.8 184.5 160.9 0.8 1.3 1 2.9 0.5 4.4s-1.5 2.7-2.9 3.3C781.4 409 583.1 558.4 573 569.6c-7 7.9-8.3 27.1-8.2 33.9 0 2-1.1 3.9-2.8 4.8-1 0.5-1.9 0.8-2.8 0.8zM290.6 674.1c-2.6 0-4.8-1.8-5.3-4.5-0.4-2.5-10.9-62.2-3.6-96.3 7.4-34.6 44.6-74.1 46.1-75.7 2-2.2 5.5-2.3 7.6-0.2 2.2 2.1 2.3 5.5 0.2 7.6-0.4 0.4-36.7 39-43.4 70.5-6.9 32 3.5 91.5 3.6 92.1 0.5 2.9-1.4 5.7-4.4 6.3-0.2 0.2-0.5 0.2-0.8 0.2zM164 578.1c-1.4 0-2.7-0.5-3.8-1.5-4.2-4.2-21.9-29.8 49-125.5 1.8-2.4 5.2-2.9 7.6-1.1 2.4 1.8 2.9 5.2 1.1 7.6-65.9 88.9-50.3 111.1-50.1 111.3 2.1 2.1 2.2 5.5 0.1 7.6-1.1 1-2.5 1.6-3.9 1.6zM436.8 757.2h-0.7c-3-0.4-5-3.1-4.6-6.1 0.2-1.2 16-120.2 9.5-173.4-0.4-3 1.8-5.7 4.7-6 2.9-0.3 5.7 1.8 6 4.7 6.6 54.6-8.9 171.2-9.6 176.1-0.3 2.7-2.6 4.7-5.3 4.7z" fill="#C6481C" p-id="4022"></path><path d="M410.6 729.9h-0.4c-36.4-2.9-77.7-28-102.3-43-7.1-4.3-13.3-8.1-16.1-9.2-4.3-1.8-10.7-2.5-17.6-3.2-12-1.3-27-2.9-39.9-11.3-13.9-9-35.5-36.8-52.8-59.2-7.7-9.9-14.3-18.5-18.7-23.3-12.9-14.3-40.6-18.3-40.9-18.3-3-0.4-5-3.1-4.6-6.1s3.2-5 6.1-4.6c1.3 0.2 32 4.6 47.5 21.8 4.6 5.1 11.4 13.8 19.2 23.9 16 20.6 37.8 48.8 50.2 56.8 10.7 7 23.7 8.4 35.1 9.6 7.6 0.8 14.8 1.6 20.5 4 3.6 1.5 9.5 5.1 17.6 10 23.8 14.5 63.7 38.8 97.6 41.5 3 0.2 5.2 2.8 5 5.8-0.4 2.7-2.7 4.8-5.5 4.8zM684.9 752.8c-2.9 0-5.3-2.3-5.4-5.3-3.5-124.4-91.6-165.2-92.5-165.6-2.7-1.2-4-4.4-2.7-7.1 1.2-2.7 4.4-4 7.2-2.7 1 0.4 95.2 44 98.9 175.2 0.1 3-2.3 5.5-5.3 5.6-0.1-0.1-0.2-0.1-0.2-0.1zM549.4 453.4c-12.7 0-26.6-2-38.7-6.2-22.5-7.7-36.6-21.4-40.7-39.5-7.9-34.8-2.6-70.5 13.6-91 9.9-12.5 23.6-19.2 39.7-19.3 11.9-0.2 19.9 3 24.9 9.3 9.2 11.4 5.2 29.4 1.6 45.4-1.9 8.4-3.8 17.1-2.6 20.9 1.2 4 10 10.3 17.8 15.9 13.8 9.9 29.4 21.2 29.9 35.5 0.2 7.4-3.7 14.4-11.6 21-6.4 5.3-19.3 8-33.9 8z m-25.5-145.1h-0.5c-12.9 0.1-23.5 5.2-31.4 15.2-14 17.7-18.7 50.6-11.6 81.9 4.1 18.1 20.6 27.2 33.7 31.7 25.2 8.6 55.1 6 62.3 0.1 5.2-4.3 7.8-8.4 7.6-12.3-0.3-9-14.2-19-25.4-27.1-10.5-7.6-19.5-14.1-21.8-21.6-2-6.6 0.1-15.8 2.4-26.4 2.9-12.9 6.4-28.9 0.5-36.2-2.7-3.5-8-5.3-15.8-5.3zM637.5 301c-7.1 0-18.4-2-37-5.7-4.8-1-9.4-1.9-13.1-2.6-7.5-1.3-19.2-0.5-30.6 0.4-14 1-28.4 2.1-38.6-0.4-15.4-3.8-68.3-32.6-74.9-45.8-1.5-3-1.1-5.3-0.5-6.8 1.3-3.1 4.6-5.5 10.5-7.8 27-10.2 125.3-19.5 146.6-9.2 20.7 10 45.3 52.7 48.6 66.4 0.5 2.2 1 5.5-1 8.1-1.7 2.2-4.7 3.4-10 3.4z m-60.2-19.8c4.4 0 8.4 0.2 11.9 0.9 3.8 0.7 8.4 1.6 13.4 2.6 10.1 2 27.2 5.5 35 5.6-3.9-11.8-25.6-49.4-42.3-57.5-19.4-9.3-124.9 1.6-141.2 10.8 8.1 9.4 51.4 34.8 66.6 38.5 8.5 2.1 22.1 1.1 35.2 0.1 7.6-0.5 14.9-1 21.4-1z m-124.8-36.5z m-4.7-2.6h0.1-0.1zM348 407.5c-4.7 0-9.8-1.8-15.3-5.5-7.9-5.2-12.7-12.7-13.9-21.8-1.7-12.7 4-27.5 15.5-40.4 10.5-11.8 33.9-18.4 57.1-16.2 18.8 1.8 32.9 8.9 39.6 20.2 1.5 2.5 6 10.1 2.4 16.2-4.1 6.8-14.2 6.3-26 5.7-8.5-0.4-18.2-0.9-23.4 1.6-4.6 2.2-8.2 9.7-11.7 16.8-4.8 9.9-9.8 20.1-19.6 22.8-1.5 0.4-3.1 0.6-4.7 0.6z m34.8-73.5c-16.9 0-33.4 5.1-40.4 13-9.3 10.4-14.1 22.4-12.9 31.8 0.8 5.9 3.8 10.7 9.1 14.2 4.6 3.1 8.4 4.2 11.3 3.4 5.1-1.4 8.9-9.4 12.7-17.1 4.3-8.8 8.7-18 16.7-21.8 7.8-3.8 18.9-3.2 28.7-2.7 5.3 0.3 14.1 0.7 16.2-0.6-0.2-0.2-0.5-1.7-2.4-5-4.8-8.1-16.3-13.5-31.4-14.9-2.5-0.2-5.1-0.3-7.6-0.3z" fill="#C6481C" p-id="4023"></path></svg>