<?xml version="1.0" standalone="no"?><!DOCTYPE svg PUBLIC "-//W3C//DTD SVG 1.1//EN" "http://www.w3.org/Graphics/SVG/1.1/DTD/svg11.dtd"><svg t="1573212776262" class="icon" viewBox="0 0 1024 1024" version="1.1" xmlns="http://www.w3.org/2000/svg" p-id="3758" xmlns:xlink="http://www.w3.org/1999/xlink" width="200" height="200"><defs><style type="text/css"></style></defs><path d="M605.9 137S383.4 276.9 306 346.9c-73.5 66.4-144.3 134.8-135.2 282.6 7 121.9 91.1 225.8 208.9 258 89.8 23 329.3 5.4 368.6-24.6S936 721.7 895.8 555.7 725 262 605.9 137z" fill="#FFFCDF" p-id="3759"></path><path d="M369.5 768.6s150.9-92.4 245.7-36.9c0 0-62.8 135.6-282.6 98.3 0 0-89.3-73.7-86-184.3 52.7 27.2 95.7 70.2 122.9 122.9z" fill="#88EF45" p-id="3760"></path><path d="M490.3 346.9s-135.2 10.2-122.9-49.1L600.9 138l172 172s-53.5 115.9-282.6 36.9z" fill="#FF9797" p-id="3761"></path><path d="M467.2 905.8c-107.4 0-203-38.8-262.2-106.4-55.6-63.4-77.8-150.9-64.2-252.8 16.4-123.1 129.7-233 221.9-303.4 94.6-72.3 208.6-133.5 225.4-133.5h0.7C602.3 111.6 888 332.1 888 597.2c0 216.3-125.8 308.6-420.8 308.6z m118.5-770.3C541 153 194.1 335.2 165.6 549.9c-12.8 95.9 6.8 174.3 58.2 233 54.5 62.2 143.2 97.9 243.4 97.9 281.1 0 395.8-82.2 395.8-283.6 0-236-239.7-437.5-277.3-461.7z" fill="#C6481C" p-id="3762"></path><path d="M366.9 573.8c-0.4 0-0.7 0-1.1-0.1-3.4-0.6-5.7-3.8-5.1-7.2 5.6-31.6 31.4-115 89.3-203.8 9.2-14.2 18.4-28.2 27.4-41.9 46.7-71.2 90.9-138.5 94.4-157.3 0.6-3.4 3.9-5.6 7.3-5 3.4 0.6 5.6 3.9 5 7.3-4 21.3-44.7 83.4-96.3 161.9-9 13.7-18.2 27.7-27.4 41.9-52.7 80.9-81.2 163.4-87.5 199.2-0.4 2.9-3 5-6 5zM372.7 833.6c-31.7 0-54.2-3.7-56.1-4-0.7-0.1-1.3-0.3-1.9-0.6-3.5-1.8-84.9-46.4-97.6-195.8-0.2-2.3 0.9-4.5 2.7-5.7 1.9-1.2 4.3-1.4 6.3-0.4 3.9 2 93.5 49.1 115.7 132.6 30.7-20.8 145.9-90.6 251.8-51.1 3.1 1.2 4.8 4.5 3.8 7.7-0.7 2.4-19.2 59.2-101.3 94.6-42.1 18.2-88.4 22.7-123.4 22.7z m-52.9-16.2c10.7 1.6 98.7 13.4 171.5-18.1 61.9-26.7 85.3-66.7 92-81.3-113-37.2-240.3 56-241.6 57-1.7 1.3-4 1.6-6 0.8s-3.5-2.5-3.9-4.6c-13.3-66.6-76-111.5-101-127.1 14.5 125 80.8 168.4 89 173.3z" fill="#C6481C" p-id="3763"></path></svg>