<?xml version="1.0" standalone="no"?><!DOCTYPE svg PUBLIC "-//W3C//DTD SVG 1.1//EN" "http://www.w3.org/Graphics/SVG/1.1/DTD/svg11.dtd"><svg t="1573212780283" class="icon" viewBox="0 0 1024 1024" version="1.1" xmlns="http://www.w3.org/2000/svg" p-id="3884" xmlns:xlink="http://www.w3.org/1999/xlink" width="200" height="200"><defs><style type="text/css"></style></defs><path d="M205.7 423.6s-34.7-0.8-34.7 48.8 54.6 57.7 54.6 57.7L201 606h-36c-21.9 0-48 28.7-48 55s16.9 58 48 58h93c20 0 35 11.5 35 25.5s-7.5 28.5-22 35.5-25.5 24-25.5 42.5S264 869 293 869h337c17 0 45.3-13.4 45.3-40.3s19.7-37 36.7-37h49.3c11 0 48.3-12.7 48.3-48.7s-36-49.3-36-49.3l72-51.7H889c21.5 0 48.6-32.5 48.6-61.7 0-29.2-29.3-50.2-51.3-50.2h-49.4L815 491l40.6-53.7s28.7-14.1 28.7-53-50-49-50-49l-628.6 88.3z" fill="#FFBB4D" p-id="3885"></path><path d="M534.9 805.6s120.8 8.9 126.6-107.2l9.7-9.7s84 22.6 126.6-9.7 65.5-71.1 58.5-107.2c-7-36-39-77.9-39-77.9s43.3-43.3 39-97.4-58-116.9-116.9-116.9-87.7 29.2-87.7 29.2c2.7-38.9-15.9-76.3-48.7-97.4-56.2-37-167.4-19.8-204.6 87.7 0 0-103.1-42.1-155.9 19.5s-47.4 130 9.7 175.4c0 0-68.2 47-39 126.6s80.6 68.2 116.9 68.2c27-1.7 53.4-8.3 77.9-19.5 0 0-14.2 73.4 29.2 107.2s39.7 29.1 97.7 29.1z" fill="#FFFEE3" p-id="3886"></path><path d="M211.6 519.1c-16.5 0-32-6.5-43.5-18.4s-17.6-27.5-17.1-44.1c0.7-22.1 15-42.9 36.6-52.9l4.1 8.9c-18.2 8.5-30.3 25.8-30.9 44.2-0.4 13.9 4.7 27 14.3 36.9 9.7 9.9 22.6 15.4 36.4 15.4l0.1 10zM839.4 434.7l-4.3-8.9c17.8-8.6 29.6-25.8 30.1-43.9 0.8-25.3-17.4-47.5-42.3-51.7l1.6-9.7c29.7 5 51.5 31.5 50.5 61.7-0.6 21.8-14.6 42.4-35.6 52.5zM867.4 634.7h-35.7v-9.8h35.7c13.9 0 26.8-5.5 36.5-15.4 9.6-9.9 14.7-23.1 14.3-36.9-0.8-26.7-25.1-49.2-53.1-49.2h-36.6v-9.8H865c33.2 0 62 26.9 62.9 58.8 0.5 16.6-5.6 32.2-17.1 44.1-11.4 11.7-26.9 18.2-43.4 18.2zM620.4 863.9H282.1c-28.5 0-52.9-21.3-55.5-48.4-2.2-23.5 10.8-45.5 32.4-54.7 9.8-4.2 16.1-13.3 16.1-23.2 0-13.7-11.2-24.9-24.9-24.9h-91.5c-16.5 0-32-6.5-43.5-18.4s-17.6-27.5-17.1-44.1c1-31.9 29.8-58.8 62.9-58.8h32v9.8h-32c-28 0-52.3 22.5-53.1 49.2-0.4 13.9 4.7 27 14.3 36.9 9.7 9.9 22.6 15.4 36.4 15.4h91.5c19.1 0 34.7 15.6 34.7 34.7 0 13.9-8.7 26.6-22.1 32.3-17.7 7.5-28.3 25.5-26.5 44.7 2.1 22.1 22.2 39.5 45.7 39.5h338.4c20 0 36.3-16.3 36.3-36.3 0-23 18.7-41.7 41.7-41.7h45.5c23.5 0 43.6-17.4 45.7-39.5 1.2-12.1-2.5-23.8-10.4-32.9-7.9-9.1-18.9-14.5-30.9-15.1l0.5-9.8c14.5 0.7 28.3 7.5 37.8 18.5 9.7 11.2 14.2 25.5 12.8 40.3-2.6 27.1-27 48.4-55.5 48.4h-45.5c-17.6 0-31.9 14.3-31.9 31.8 0.2 25.6-20.5 46.3-46 46.3z" fill="#C6481C" p-id="3887"></path><path d="M515.6 805.2c-83.9 0-136.1-43-136.1-112.2 0-75 61-136.1 136.1-136.1s136.1 61 136.1 136.1c0 69.2-52.1 112.2-136.1 112.2z m0-228.6c-64.2 0-116.4 52.2-116.4 116.4 0 85.9 89.1 92.5 116.4 92.5S632 778.8 632 693c0-64.2-52.2-116.4-116.4-116.4z" fill="#C6481C" p-id="3888"></path><path d="M315.9 690.9c-83.9 0-136.1-42.7-136.1-111.4 0-75 61-136.1 136.1-136.1S452 504.4 452 579.5c0 1.8 0 3.6-0.1 5.3-0.2 5.4-4.6 10-10.2 9.5-5.4-0.2-9.7-4.8-9.5-10.2 0.1-1.5 0.1-3 0.1-4.6 0-64.2-52.2-116.4-116.4-116.4s-116.4 52.2-116.4 116.4c0 85.1 89.1 91.7 116.4 91.7 26.5 0 50.4-4.9 69.2-14.1 4.9-2.4 10.8-0.4 13.2 4.5 2.4 4.9 0.4 10.8-4.5 13.2-21.5 10.5-48.4 16.1-77.9 16.1z" fill="#C6481C" p-id="3889"></path><path d="M234.7 488.6c-1.8 0-3.6-0.5-5.2-1.5-32.5-20.3-49.6-52.3-49.6-92.4 0-75 61-136.1 136.1-136.1s136.1 61 136.1 136.1c0 3.4-0.1 6.6-0.4 9.9-0.4 5.4-5.1 9.5-10.5 9.1s-9.5-5.1-9.1-10.5c0.2-2.7 0.3-5.5 0.3-8.4 0-64.2-52.2-116.4-116.4-116.4s-116.4 52.2-116.4 116.4c0 33 14 59.2 40.4 75.7 4.6 2.9 6 9 3.1 13.6-2 2.9-5.2 4.5-8.4 4.5zM797 488.6c-3.3 0-6.5-1.6-8.4-4.6-2.9-4.6-1.5-10.7 3.1-13.6 26.4-16.5 40.4-42.7 40.4-75.7 0-64.2-52.2-116.4-116.4-116.4s-116.4 52.2-116.4 116.4c0 3.1 0.1 6 0.4 9 0.4 5.4-3.6 10.2-9 10.6-5.5 0.5-10.2-3.6-10.6-9-0.3-3.4-0.4-6.9-0.4-10.5 0-75 61-136.1 136.1-136.1s136.1 61 136.1 136.1c0 40.1-17.2 72.1-49.7 92.4-1.7 0.9-3.5 1.4-5.2 1.4z" fill="#C6481C" p-id="3890"></path><path d="M394.1 485c-0.9 0-1.8-0.1-2.7-0.4-5.2-1.5-8.3-6.9-6.8-12.1 16.4-58.4 70.3-99.2 131-99.2 59.9 0 112.2 38.4 130 95.6 1.6 5.2-1.3 10.7-6.5 12.3-5.2 1.6-10.7-1.3-12.3-6.5-15.2-48.9-59.9-81.8-111.2-81.8-52 0-98 34.9-112.1 84.9-1.2 4.4-5.1 7.2-9.4 7.2zM389.9 302.3h-0.9c-5.4-0.5-9.4-5.3-8.9-10.7 6.3-70.6 64.5-123.9 135.5-123.9 69.6 0 127.8 52.1 135.3 121.2 0.6 5.4-3.3 10.3-8.7 10.8-5.4 0.6-10.3-3.3-10.8-8.7-6.4-59.1-56.2-103.7-115.7-103.7-60.7 0-110.5 45.5-115.9 105.9-0.5 5.3-4.8 9.1-9.9 9.1z" fill="#C6481C" p-id="3891"></path><path d="M713.1 695.2c-28.1 0-54.3-5.7-75.6-16.5-4.9-2.5-6.8-8.4-4.4-13.2 2.5-4.8 8.4-6.8 13.2-4.4 18.6 9.4 41.7 14.4 66.8 14.4 53.7 0 116.4-25.1 116.4-96 0-64.2-52.2-116.4-116.4-116.4s-116.4 52.2-116.4 116.4c0 3.3-0.1 4.6-0.2 5.4 0 0 0.2 0.8 0.4 2.4 0.9 5.4-2.7 10.4-8.1 11.4-5.3 1-10.4-2.7-11.4-8.1-0.7-3.9-0.9-5.1-0.6-7.6 0.1-0.5 0.1-1.4 0.1-3.5 0-75 61-136.1 136.1-136.1 75 0 136.1 61 136.1 136.1 0 70.3-53.4 115.7-136 115.7z" fill="#C6481C" p-id="3892"></path></svg>